<svg xmlns="http://www.w3.org/2000/svg" viewBox="0 0 882 882" role="img" aria-label="AVK">
  <g transform="translate(0 882) scale(0.1 -0.1)" fill="#EDEDEB">
    <path d="M3650 7758 c-25 -63 -194 -495 -272 -698 -22 -58 -44 -114 -49 -125 -10 -22 -118 -298 -151 -385 -11 -30 -27 -68 -34 -85 -7 -16 -22 -55 -34 -85 -11 -30 -25 -64 -30 -75 -4 -11 -36 -92 -70 -180 -61 -160 -79 -205 -110 -280 -9 -22 -27 -67 -40 -100 -36 -96 -91 -238 -100 -260 -9 -21 -55 -139 -160 -410 -34 -88 -66 -169 -71 -180 -10 -23 -119 -301 -151 -385 -11 -30 -27 -68 -34 -85 -7 -16 -22 -55 -34 -85 -11 -30 -25 -64 -30 -75 -4 -11 -36 -92 -70 -180 -67 -176 -84 -219 -112 -282 -10 -23 -18 -45 -18 -48 0 -3 -25 -70 -56 -148 -31 -78 -81 -205 -111 -282 -87 -224 -94 -239 -103 -260 -5 -11 -23 -58 -40 -105 -18 -47 -38 -99 -46 -117 -8 -17 -14 -34 -14 -38 0 -4 -7 -21 -15 -38 -30 -67 -135 -340 -135 -353 0 -8 -4 -14 -10 -14 -5 0 -10 -6 -10 -12 0 -7 -21 -55 -47 -107 -105 -207 -226 -274 -538 -298 l-100 -8 0 -465 0 -465 1300 -3 c715 -1 1305 0 1310 2 7 2 9 165 7 469 l-2 465 -198 7 c-305 11 -394 39 -463 150 -32 50 -25 135 20 272 39 117 173 490 190 528 5 11 19 49 32 85 12 36 31 86 42 112 l19 48 1019 0 1019 0 9 -22 c5 -13 37 -111 71 -218 34 -107 80 -249 102 -315 127 -387 131 -446 39 -535 -73 -71 -147 -90 -396 -100 -110 -5 -201 -9 -202 -9 -2 -1 -3 -212 -3 -471 l0 -470 1594 0 c1444 0 1594 1 1600 16 9 23 7 897 -2 910 -4 7 -53 15 -117 19 -192 12 -314 48 -379 110 -78 76 -187 287 -301 585 -21 52 -56 145 -80 205 -24 61 -59 153 -80 205 -20 52 -52 133 -70 180 -18 47 -45 117 -60 155 -14 39 -30 79 -35 90 -9 19 -103 261 -171 440 -17 44 -34 89 -39 100 -5 11 -33 81 -61 155 -29 74 -69 178 -89 230 -20 52 -60 156 -89 230 -28 74 -56 144 -60 155 -10 23 -61 154 -121 310 -23 61 -48 124 -55 140 -7 17 -34 86 -60 155 -26 69 -51 134 -56 145 -24 59 -85 216 -135 348 -19 51 -39 101 -44 112 -5 11 -37 92 -71 180 -69 180 -102 266 -184 475 -68 174 -115 294 -145 375 -13 33 -31 79 -42 102 -10 23 -18 46 -18 51 0 5 -9 31 -21 58 -11 27 -24 58 -29 69 -4 11 -36 92 -70 180 -34 88 -70 180 -80 205 l-19 45 -760 3 -761 2 -10 -22z m543 -1903 c20 -55 61 -169 91 -254 31 -85 56 -159 56 -164 0 -5 6 -23 14 -40 8 -18 26 -66 40 -107 14 -41 44 -127 67 -190 23 -63 47 -133 54 -155 8 -22 32 -92 55 -155 23 -63 48 -133 55 -155 7 -22 32 -92 55 -155 23 -63 46 -131 52 -150 5 -19 13 -39 17 -45 4 -5 13 -30 20 -54 7 -23 15 -49 18 -57 4 -12 -94 -14 -657 -14 -626 0 -662 1 -656 18 41 110 90 241 97 257 5 11 45 119 89 240 44 121 85 229 90 240 11 24 37 96 52 145 5 19 13 40 17 45 4 6 20 46 35 90 15 44 32 89 36 100 15 34 56 144 104 275 25 69 55 150 66 180 12 30 35 92 52 138 17 46 34 79 38 75 4 -4 23 -53 43 -108z"/>
  </g>
</svg>
